<svg height="512" viewBox="0 0 512 512" width="512" xmlns="http://www.w3.org/2000/svg" xmlns:xlink="http://www.w3.org/1999/xlink"><linearGradient id="linear-gradient" gradientUnits="userSpaceOnUse" x1="68.49" x2="424.45" y1="68.49" y2="424.45"><stop offset="0" stop-color="#298ffe"/><stop offset="1" stop-color="#0435da"/></linearGradient><linearGradient id="linear-gradient-2" x1="436.15" x2="105.32" xlink:href="#linear-gradient" y1="436.15" y2="105.32"/><g id="Layer_2" data-name="Layer 2"><g id="check"><circle cx="256" cy="256" fill="url(#linear-gradient)" r="256"/><circle cx="256" cy="256" fill="url(#linear-gradient-2)" r="220"/><path id="icon" d="m226.42 294.94c7.6-11.14 15-21.94 22.33-32.72q33.9-49.62 67.85-99.22c6.71-9.77 15.67-11.19 25.37-4.56 3.6 2.46 7.28 4.8 10.84 7.31 8.92 6.29 10.73 15.52 4.57 24.57q-36.24 53.22-72.62 106.35-17.64 25.83-35.19 51.71c-6.85 10.14-15.73 12.12-25.82 5q-32.4-22.84-64.51-46.11c-9.58-6.93-10.74-15.88-3.83-25.5 2.71-3.76 5.33-7.58 8.13-11.27 5.75-7.6 14.41-9.48 22.38-4.25 9.33 6.14 18.27 12.85 27.38 19.32z" fill="#fff"/></g></g></svg>