<svg xmlns="http://www.w3.org/2000/svg" version="1.1" width="512" height="512" x="0" y="0" viewBox="0 0 512 512" style="enable-background:new 0 0 512 512" xml:space="preserve" class=""><g><linearGradient id="a" x1="39.287" x2="472.713" y1="256" y2="256" gradientUnits="userSpaceOnUse"><stop stop-opacity="1" stop-color="#008afa" offset="0"></stop><stop stop-opacity="1" stop-color="#005de8" offset="0.13202078915132395"></stop><stop stop-opacity="1" stop-color="#007be2" offset="0.191"></stop><stop stop-opacity="1" stop-color="#0092de" offset="0.359"></stop><stop stop-opacity="1" stop-color="#6fb4ff" offset="0.539"></stop><stop stop-opacity="1" stop-color="#0065f8" offset="0.739"></stop><stop stop-opacity="1" stop-color="#0042ff" offset="1"></stop></linearGradient><path fill="url(#a)" d="M249 210.335V7a7 7 0 1 1 14 0v5.187h96.521a6.994 6.994 0 0 1 6.974 7 6.911 6.911 0 0 1-2.24 5.131l-24.036 25.545 24.381 25.88a6.984 6.984 0 0 1-.311 9.865 6.877 6.877 0 0 1-4.763 1.9v.029H263v122.8a7 7 0 1 1-14 0zM334.266 425.8c12.983-9.071 25.031-17.519 36.766-53.265 6.69-20.381 25.938-35.632 42.379-48.671 10.29-8.136 19.3-15.279 21.629-20.523H265.5c-10.006 7.171-12.614 9.694-12.076 10.459.936 1.333 4.111 3.175 7.767 5.3 8.533 4.961 19.05 11.056 24.237 23.727 7.937 19.474-2.069 30.388-12.387 41.642-7.824 8.532-15.9 17.348-9.412 31.833 2.608 5.84 2.892 18.88.737 27.667a26.215 26.215 0 0 1-3.146 7.909c-2.268 3.487-5.358 5.613-9.383 5.7a12.053 12.053 0 0 1-8.674-3.714l.085-.085c-6.492-3.146-15.9-9.638-25.4-16.158-10.715-7.37-21.544-14.825-25-16.611-15.138-7.739-25.938 4.507-34.7 21.6-4.9 9.609-9.269 20.891-13.38 31.521-.765 1.985-1.53 3.941-2.239 5.811a217.436 217.436 0 0 0 144.74 29.822c.085-1.305.141-2.608.2-3.941.51-10.715 1.077-22.309 6.407-33.024 14.368-28.828 27.747-38.182 40.39-46.999zm115.8-120.532c-2.382 10.517-13.975 19.7-27.355 30.3-14.826 11.764-32.174 25.512-37.447 41.585-13.294 40.451-27.354 50.288-42.463 60.861-11.084 7.739-22.82 15.959-35.519 41.443-3.969 7.966-4.451 17.916-4.9 27.072v.482a216.634 216.634 0 0 0 170.2-203.673H450.4a47.504 47.504 0 0 1-.336 1.931zM199.618 407.744c4.422 2.267 15.647 9.978 26.7 17.6 11.2 7.682 17.773 16.526 20.013 15.9a7.446 7.446 0 0 1 3.345-.142 2.482 2.482 0 0 0 .17-.652c1.53-6.208 1.644-14.74.141-18.057-10.488-23.443.964-35.944 12.076-48.048 7.059-7.711 13.919-15.194 9.553-25.909-3.228-7.903-11.336-12.609-17.916-16.436-5.159-2.976-9.638-5.584-12.444-9.524-4-5.613-4.252-11.509 2.012-19.134H132.747a35.162 35.162 0 0 1-.482 8.305c-1.1 6.492-4.025 13.89-9.383 22.734-5.612 9.27-8.362 21.573-11.2 34.414-4.592 20.693-9.468 42.6-26.759 59.529A214.712 214.712 0 0 0 129.8 471.5l1.049-2.75c4.224-10.914 8.7-22.507 14.032-32.939 12.471-24.354 28.913-41.277 54.737-28.067zm-89.492-81.073c4.309-7.115 6.6-12.784 7.4-17.49a19.518 19.518 0 0 0 .17-5.839H39.4a216.1 216.1 0 0 0 36.653 112.707c12.955-13.89 17.122-32.684 21.062-50.486 3.118-14.031 6.123-27.525 13.011-38.892zM87.08 207.3h.2a27.6 27.6 0 1 0-.2 0zm103.013-15.05h.51a34.144 34.144 0 1 0-.51 0zm-72.88 51.733a46.374 46.374 0 0 1 2.976-16.356 37.416 37.416 0 0 0-6.633-3.147 39.773 39.773 0 0 0-13.153-2.211H73.955a37.466 37.466 0 0 0-24.832 9.043c-6.066 5.386-9.836 12.728-9.836 20.778v36.256h77.926zM424.721 207.3h.171a27.61 27.61 0 1 0-.171 0zm-102.843-15.05a34.112 34.112 0 1 0-.481 0zm141 39.062a37.466 37.466 0 0 0-24.832-9.043h-26.478a39.6 39.6 0 0 0-13.124 2.211 37.416 37.416 0 0 0-6.633 3.147 46.374 46.374 0 0 1 2.976 16.356v44.363h77.926V252.09c0-8.05-3.77-15.39-9.836-20.778zm-214.362 12.671c0-9.95-4.649-19.049-12.132-25.683a45.849 45.849 0 0 0-30.36-11.083h-31.352a45.847 45.847 0 0 0-30.359 11.083 38.048 38.048 0 0 0-8.249 10.376l-.029.028a32.582 32.582 0 0 0-3.855 15.279v44.363h116.336zm73.362-36.766h-15.9a45.849 45.849 0 0 0-30.36 11.083c-7.483 6.634-12.132 15.733-12.132 25.683v44.363H379.82v-44.363a32.268 32.268 0 0 0-3.884-15.279v-.028a38.067 38.067 0 0 0-8.249-10.376 45.847 45.847 0 0 0-30.359-11.083z" data-original="url(#a)" class=""></path></g></svg>