<svg width="520" height="532" viewBox="0 0 520 532" fill="none" xmlns="http://www.w3.org/2000/svg">
<path d="M503.563 235.827L468.644 200.913C460.356 192.626 453.565 176.248 453.565 164.503V115.127C453.565 91.6387 434.377 72.4508 410.895 72.4383H361.499C349.768 72.4383 333.371 65.6344 325.082 57.353L290.169 22.4399C273.58 5.85078 246.418 5.85078 229.829 22.4399L194.916 57.378C186.621 65.6657 170.206 72.4508 158.499 72.4508H109.123C85.6664 72.4508 66.4536 91.6387 66.4536 115.127V164.504C66.4536 176.203 59.6634 192.632 51.3745 200.915L16.4551 235.828C-0.146487 252.417 -0.146487 279.579 16.4551 296.194L51.3745 331.107C59.6684 339.395 66.4536 355.818 66.4536 367.518V416.895C66.4536 440.358 85.6664 459.571 109.123 459.571H158.5C170.232 459.571 186.628 466.361 194.917 474.644L229.831 509.569C246.42 526.146 273.581 526.146 290.17 509.569L325.084 474.644C333.379 466.356 349.769 459.571 361.501 459.571H410.897C434.378 459.571 453.566 440.358 453.566 416.895V367.518C453.566 355.768 460.363 339.39 468.645 331.107L503.565 296.194C520.14 279.579 520.14 252.416 503.563 235.827ZM226.13 362.005L131.991 267.853L162.162 237.689L226.138 301.665L357.833 170.001L387.996 200.166L226.13 362.005Z" fill="#E37878"/>
<rect x="103.773" y="141.128" width="314.781" height="275.556" fill="#E37878"/>
<path d="M259.999 244.903L332.884 172.019C338.716 166.187 348.149 166.186 353.982 172.018C359.816 177.85 359.817 187.285 353.982 193.117C353.982 193.117 353.982 193.117 353.982 193.117L281.1 266.002L353.982 338.886C353.982 338.886 353.982 338.886 353.982 338.886C359.816 344.718 359.816 354.152 353.982 359.985C351.073 362.893 347.25 364.356 343.433 364.356C339.616 364.356 335.793 362.893 332.884 359.984L259.999 287.1L187.117 359.984L185.349 358.217L187.117 359.985C184.208 362.893 180.385 364.356 176.568 364.356C172.751 364.356 168.925 362.894 166.018 359.984C160.184 354.151 160.184 344.718 166.019 338.886L238.901 266.002L166.019 193.117C166.019 193.117 166.019 193.117 166.018 193.117C160.184 187.285 160.184 177.851 166.018 172.019L259.999 244.903ZM259.999 244.903L187.117 172.019L187.116 172.018C181.282 166.187 171.851 166.186 166.019 172.018L259.999 244.903Z" fill="white" stroke="white" stroke-width="5"/>
</svg>
