<svg xmlns="http://www.w3.org/2000/svg" version="1.1" xmlns:xlink="http://www.w3.org/1999/xlink" width="512" height="512" x="0" y="0" viewBox="0 0 512 512" style="enable-background:new 0 0 512 512" xml:space="preserve"><g><linearGradient id="a" x1="63.563" x2="450.872" y1="463.78" y2="89.053" gradientUnits="userSpaceOnUse"><stop stop-opacity="1" stop-color="#9baeff" offset="0"></stop><stop stop-opacity="1" stop-color="#2057f4" offset="1"></stop></linearGradient><path fill="url(#a)" fill-rule="evenodd" d="M401.792 512H110.144v-37.127h291.648zm-160.4-204.9c-16.248 13.549-32.346 29.581-43.326 47.8-8.784 14.591-14.361 30.858-13.131 48.058l.591 8.2h133.6l-3.512-11.422a46.766 46.766 0 0 1 24.469-55.969l4.7-2.282.263-5.2c2.37-46.11 1.53-119.853-34.52-154.56-18.581-17.891-42.951-21.661-67.842-19a8.807 8.807 0 0 1-8.347-3.986 46.384 46.384 0 0 0-34.96-21.055l-22.182-1.986 29.932 33.67a8.818 8.818 0 0 1-.831 12.544l-80.789 69.757 17.1 33.534 18.839-9.183-3.159-13.689a8.815 8.815 0 0 1 9.45-10.765c15.8 1.54 42.082 2.122 52.842-12.121a8.84 8.84 0 0 1 14.709.943c10.821 18.929 12.741 40.12 9.159 61.392a8.768 8.768 0 0 1-3.052 5.309zm118.872 121.709H151.682v28.4h208.582zm40.2 25.243-.211.239-2.629 2.92h-19.7v-31.078a15 15 0 0 0-14.99-14.971h-17.862l-2.372-1.812a29.3 29.3 0 0 1 12.155-52.05 8.809 8.809 0 0 0 7.1-8.042c2.53-36.815 2.708-77.165-5.381-113.352-5.487-24.557-15.37-49.143-33.8-66.893-19.858-19.117-45.27-25.769-72.419-24.558l-4.22.188-2.8-3.173c-20.619-23.417-54.861-28.262-81.621-12.432a8.826 8.826 0 0 0-2.1 13.465l28.365 31.913-79.25 68.429a8.854 8.854 0 0 0-2.093 10.685l24.164 47.412a8.821 8.821 0 0 0 11.727 3.939l32.961-16.037a8.817 8.817 0 0 0 4.891-9.065l-1.253-9.483 9.553-.489c9.07-.464 18.432-1.957 26.858-5.408l10.363-4.249 1.7 11.075a81.623 81.623 0 0 1 .353 20.938l-.362 3.46-2.629 2.291c-29.839 25.938-59.88 61.969-57.81 103.985l.446 9.263h-18.583a15 15 0 0 0-14.98 14.971v31.078h-19.511l-2.61-2.68a14.065 14.065 0 0 1-.488-.549L54.635 397.2l32.219-53.331a8.838 8.838 0 0 0 .277-8.628 187.6 187.6 0 0 1-12.3-29.689 8.842 8.842 0 0 0-6.314-5.892L8.055 284.746v-73.64l60.467-14.92a8.84 8.84 0 0 0 6.314-5.9 188.652 188.652 0 0 1 12.3-29.684 8.863 8.863 0 0 0-.277-8.629L54.635 98.651 106.7 46.579l53.321 32.228a8.845 8.845 0 0 0 8.638.277 189.444 189.444 0 0 1 29.67-12.305 8.78 8.78 0 0 0 5.9-6.3L219.162 0h73.631l14.919 60.476a8.831 8.831 0 0 0 5.892 6.3 189.319 189.319 0 0 1 29.679 12.314 8.854 8.854 0 0 0 8.629-.281l53.331-32.233 52.081 52.077-32.233 53.321a8.844 8.844 0 0 0-.286 8.629 188.76 188.76 0 0 1 12.319 29.684 8.822 8.822 0 0 0 6.291 5.9l60.48 14.92v73.64l-60.48 14.914a8.83 8.83 0 0 0-6.3 5.9 188.747 188.747 0 0 1-12.309 29.67 8.843 8.843 0 0 0 .286 8.629l32.233 53.331z" data-original="url(#a)"></path></g></svg>