<svg xmlns="http://www.w3.org/2000/svg" version="1.1" xmlns:xlink="http://www.w3.org/1999/xlink" width="512" height="512" x="0" y="0" viewBox="0 0 512.004 512.004" style="enable-background:new 0 0 512 512" xml:space="preserve" class=""><g><linearGradient id="a" x1="256.002" x2="256.002" y1="497.004" y2="0" gradientUnits="userSpaceOnUse"><stop stop-opacity="1" stop-color="#044df8" offset="0"></stop><stop stop-opacity="1" stop-color="#9cb9ff" offset="1"></stop></linearGradient><linearGradient id="b" x1="256.004" x2="256.004" y1="512.004" y2="482.004" gradientUnits="userSpaceOnUse"><stop stop-opacity="1" stop-color="#97a9f8" offset="0"></stop><stop stop-opacity="1" stop-color="#f0f6ff" offset="0.997"></stop></linearGradient><path fill="url(#a)" d="M346.004 240.004h-60c-8.284 0-15 6.716-15 15v242h90v-242c0-8.284-6.716-15-15-15zm-120 60h-60c-8.284 0-15 6.716-15 15v182h90v-182c0-8.284-6.716-15-15-15zm-120 60h-60c-8.284 0-15 6.716-15 15v122h90v-122c0-8.284-6.716-15-15-15zm360-180h-60c-8.284 0-15 6.716-15 15v302h90v-302c0-8.284-6.716-15-15-15zm44.422-146.18a15.004 15.004 0 0 0-9.027-7.646L418.143.662c-7.921-2.428-16.31 2.026-18.737 9.946-2.427 7.921 2.026 16.31 9.946 18.737l44.945 13.775L8.906 241.3c-7.569 3.368-10.974 12.234-7.606 19.803 2.486 5.587 7.968 8.906 13.713 8.906 2.037 0 4.108-.417 6.09-1.299l449.77-200.129-17.655 48.688c-2.824 7.788 1.2 16.391 8.988 19.215 7.756 2.813 16.38-1.17 19.215-8.988l29.685-81.862a15.003 15.003 0 0 0-.68-11.81z" data-original="url(#a)" class=""></path><path fill="url(#b)" d="M497.004 482.004h-482c-8.284 0-15 6.716-15 15s6.716 15 15 15h482c8.284 0 15-6.716 15-15s-6.716-15-15-15z" data-original="url(#b)"></path></g></svg>