<svg xmlns="http://www.w3.org/2000/svg" version="1.1" xmlns:xlink="http://www.w3.org/1999/xlink" width="512" height="512" x="0" y="0" viewBox="0 0 512 512" style="enable-background:new 0 0 512 512" xml:space="preserve" class=""><g><linearGradient id="a" x1="445.799" x2="66.201" y1="527.061" y2="-15.061" gradientUnits="userSpaceOnUse"><stop stop-opacity="1" stop-color="#96bdff" offset="0.101"></stop><stop stop-opacity="1" stop-color="#0038fc" offset="1"></stop></linearGradient><path fill="url(#a)" fill-rule="evenodd" d="M229.907 432.291c-25.802-5.009-48.997-17.306-67.368-34.658a19.285 19.285 0 0 0 2.159-4.285l7.141-20.017 17.49-10.098c11.03 11.385 24.95 19.953 40.579 24.521v44.537zM469.73 9H42.27C23.971 9 9 23.971 9 42.27v36.022h494V42.27C503 23.971 488.029 9 469.73 9zM55.251 55.67c-6.641 0-12.024-5.383-12.024-12.024s5.383-12.024 12.024-12.024 12.024 5.384 12.024 12.024c.001 6.641-5.383 12.024-12.024 12.024zm44.06 0c-6.641 0-12.024-5.383-12.024-12.024s5.384-12.024 12.024-12.024c6.641 0 12.024 5.384 12.024 12.024 0 6.641-5.383 12.024-12.024 12.024zm44.06 0c-6.641 0-12.024-5.383-12.024-12.024s5.383-12.024 12.024-12.024 12.024 5.384 12.024 12.024c0 6.641-5.384 12.024-12.024 12.024zm310.852-4.024H309.424a8 8 0 0 1 0-16h144.799a8 8 0 0 1 0 16zM9 94.292V469.73C9 488.029 23.971 503 42.27 503h427.46c18.299 0 33.27-14.971 33.27-33.27V94.292zm462.403 377.11H40.598V125.889h430.805zm-322.34-125.756-26.694-4.881a3.088 3.088 0 0 0-2.177.375l-55.126 31.828c-1.195.689-1.023 2.464.284 2.908l31.887 10.87-6.529 33.052c-.266 1.353 1.183 2.391 2.378 1.701l55.125-31.829a3.091 3.091 0 0 0 1.417-1.698l9.117-25.556 94.847-54.764c4.863-2.807 6.111-8.448 3.542-13.225-2.521-4.688-8.615-6.204-13.224-3.544zM256 449.564c-5.552 0-10.093-4.542-10.093-10.093v-52.666c0-5.551 4.541-10.093 10.093-10.093 5.551 0 10.093 4.542 10.093 10.093v52.666c-.001 5.552-4.542 10.093-10.093 10.093zM105.081 298.646c0-5.552 4.542-10.093 10.093-10.093h52.666c5.551 0 10.093 4.542 10.093 10.093v.001c0 5.551-4.542 10.093-10.093 10.093h-52.666c-5.551-.001-10.093-4.543-10.093-10.094zm150.918-150.918c5.551 0 10.093 4.542 10.093 10.093v52.667c0 5.551-4.542 10.093-10.092 10.093h-.001c-5.551 0-10.093-4.542-10.093-10.093V157.82c.001-5.551 4.542-10.092 10.093-10.092zm150.919 150.918c0 5.551-4.542 10.093-10.093 10.093h-52.666c-5.551 0-10.093-4.542-10.093-10.092v-.001c0-5.551 4.542-10.093 10.093-10.093h52.666c5.551 0 10.093 4.541 10.093 10.093zm-284.107 26.093h30.465l-7.12 4.111-20.909-3.823a19.21 19.21 0 0 0-2.436-.288zm133.188 15.609a41.526 41.526 0 0 1-19.064-4.604l24.658-14.237c12.261-7.079 16.289-22.28 9.634-34.658-6.804-12.654-22.935-16.971-35.316-9.822l-20.449 11.807c4.413-18.296 20.887-31.89 40.538-31.89 23.032 0 41.702 18.671 41.702 41.702 0 23.032-18.671 41.702-41.703 41.702zm-133.644-67.795c10.534-54.265 53.289-97.017 107.552-107.552v44.537c-30.286 8.855-54.16 32.728-63.015 63.015zm159.737-107.552c54.265 10.533 97.017 53.289 107.552 107.552h-44.537c-8.855-30.286-32.727-54.16-63.015-63.015zm107.552 159.738c-10.534 54.263-53.287 97.019-107.552 107.552v-44.537c30.287-8.855 54.16-32.729 63.015-63.015z" clip-rule="evenodd" data-original="url(#a)" class=""></path></g></svg>