<svg xmlns="http://www.w3.org/2000/svg" version="1.1" xmlns:xlink="http://www.w3.org/1999/xlink" width="512" height="512" x="0" y="0" viewBox="0 0 32 32" style="enable-background:new 0 0 512 512" xml:space="preserve"><g><linearGradient id="a"><stop stop-opacity="1" stop-color="#74a8ff" offset="0"></stop><stop stop-opacity="1" stop-color="#1e59e5" offset="1"></stop></linearGradient><linearGradient xlink:href="#a" id="c" x1="1" x2="31" y1="16" y2="16" gradientUnits="userSpaceOnUse"><stop stop-opacity="1" stop-color="#6d93ff" offset="0"></stop><stop stop-opacity="1" stop-color="#0055ff" offset="1"></stop></linearGradient><linearGradient id="b"><stop offset="0" stop-color="#bbdefb"></stop><stop offset="1" stop-color="#64b5f6"></stop></linearGradient><linearGradient xlink:href="#b" id="d" x1="7" x2="25" y1="16" y2="16" gradientUnits="userSpaceOnUse"></linearGradient><linearGradient xlink:href="#a" id="e" x1="15" x2="24" y1="12.5" y2="12.5" gradientUnits="userSpaceOnUse"></linearGradient><linearGradient xlink:href="#b" id="f" x1="22" x2="31" y1="5.5" y2="5.5" gradientUnits="userSpaceOnUse"></linearGradient><circle cx="16" cy="16" r="15" fill="url(#c)" data-original="url(#c)"></circle><path fill="url(#d)" d="M16 7c-4.962 0-9 4.038-9 9s4.038 9 9 9 9-4.038 9-9-4.038-9-9-9z" data-original="url(#d)"></path><path fill="url(#e)" d="M16 17a1 1 0 0 1-.707-1.707l7-7a1 1 0 1 1 1.414 1.414l-7 7A.997.997 0 0 1 16 17z" data-original="url(#e)"></path><path fill="url(#f)" d="M27 10h-4a1 1 0 0 1-1-1V5a1 1 0 0 1 .293-.707l3-3A.998.998 0 0 1 27 2v3h3a1 1 0 0 1 .707 1.707l-3 3A1 1 0 0 1 27 10z" data-original="url(#f)"></path></g></svg>