<svg xmlns="http://www.w3.org/2000/svg" version="1.1" xmlns:xlink="http://www.w3.org/1999/xlink"  width="512" height="512" x="0" y="0" viewBox="0 0 512 512" style="enable-background:new 0 0 512 512" xml:space="preserve" class=""><g><linearGradient id="a" x1="102.008" x2="418.904" y1="130.225" y2="447.122" gradientTransform="matrix(1 0 0 -1 0 512)" gradientUnits="userSpaceOnUse"><stop stop-opacity="1" stop-color="#003ff6" offset="0"></stop><stop stop-opacity="1" stop-color="#6c98ff" offset="0.4136628787290087"></stop><stop stop-opacity="1" stop-color="#a7d5ff" offset="0.6335751952485708"></stop><stop stop-opacity="1" stop-color="#accbff" offset="1"></stop></linearGradient><path fill="url(#a)" d="M67.474 172.653c-.074 2.504-.074 8.211 0 10.667H24.702l17.599 10.506c2.56 1.547 3.359 4.8 1.866 7.36-1.557 2.541-4.855 3.287-7.36 1.814L2.623 182.572c-1.574-.899-2.614-2.935-2.614-4.586 0-1.658.937-3.616 2.614-4.586l34.131-20.426c2.507-1.493 5.814-.694 7.306 1.866 1.494 2.507.694 5.814-1.813 7.306l-17.599 10.506zm188.473-10.666h35.838c-6.08-13.706-19.839-23.305-35.838-23.305-21.599 0-39.199 17.653-39.199 39.305 0 21.706 17.599 39.358 39.199 39.358 15.999 0 29.759-9.599 35.892-23.359h-35.892c-8.8 0-15.999-7.147-15.999-15.999-.001-8.801 7.199-16 15.999-16zm80.423 0c-7.466-37.545-40.691-65.971-80.423-65.971-45.172 0-81.864 36.799-81.864 81.97 0 45.225 36.692 82.024 81.864 82.024 39.732 0 72.957-28.425 80.423-66.025h-33.065c-6.667 19.733-25.386 34.026-47.358 34.026-27.52 0-49.865-22.452-49.865-50.025s22.346-49.972 49.865-49.972c21.972 0 40.691 14.239 47.358 33.972h33.065zm-42.079 328.468H217.71c-.866 0-1.399.947-.951 1.688l5.339 8.793a23.002 23.002 0 0 0 19.662 11.065h28.479a23.002 23.002 0 0 0 19.662-11.065l5.338-8.793a1.11 1.11 0 0 0-.948-1.688zm13.361-68.211H204.35a7.6 7.6 0 0 0-7.6 7.6v42.345a7.6 7.6 0 0 0 7.6 7.6h103.303a7.6 7.6 0 0 0 7.6-7.6v-42.345a7.601 7.601 0 0 0-7.601-7.6zm-51.705-108.903c-74.562 0-135.202-60.752-135.195-135.369.007-74.551 60.423-134.899 134.474-135.286 69.494-.364 127.088 51.976 135.062 119.3h42.932C425.393 72.96 349.3-.764 254.294.006c-98.763.799-176.207 81.61-176.207 177.98 0 51.891 22.559 101.063 61.918 134.928 29.407 25.325 45.846 56.274 47.979 90.044.307 4.866 4.397 8.619 9.272 8.619h117.942c4.776 0 8.829-3.594 9.283-8.347 2.073-21.684 10.875-59.82 45.276-88.45 36.532-30.452 59.091-74.077 63.411-120.796h-42.879c-7.947 67.092-65.171 119.357-134.342 119.357zm123.568-151.354c-7.84-61.224-60.264-108.636-123.569-108.636-68.69 0-124.529 55.891-124.529 124.635s55.838 124.689 124.529 124.689c63.304 0 115.728-47.465 123.569-108.689h-32.319c-7.572 43.518-45.598 76.69-91.25 76.69-51.038 0-92.53-41.598-92.53-92.69s41.492-92.636 92.53-92.636c45.652 0 83.677 33.119 91.25 76.637zm132.235 35.367a5.336 5.336 0 0 1-5.094 3.75h-37.287a5.347 5.347 0 0 1-3.021-.937l-24.497-16.843H255.973a5.333 5.333 0 0 1 0-10.666h185.825l24.55-16.877a5.347 5.347 0 0 1 3.021-.937l37.287-.003a5.334 5.334 0 0 1 3.021 9.729l-11.764 8.088h8.717a5.333 5.333 0 0 1 0 10.666h-8.664l11.711 8.052a5.333 5.333 0 0 1 2.073 5.978zm-51.097-24.715h18.46l10.372-7.133-18.46.003zm28.835 17.799-10.348-7.114h-18.462l10.348 7.114z" data-original="url(#a)" class=""></path></g></svg>